<svg xmlns="http://www.w3.org/2000/svg" width="612" height="493" viewBox="0 0 612 493" fill="none">
  <path fill-rule="evenodd" clip-rule="evenodd" d="M175.654 1.04197C174.399 2.29069 174.218 141.969 175.469 143.941C176.097 144.933 178.75 145.234 188.698 145.447C200.365 145.696 201.247 145.606 202.861 144C204.534 142.336 204.583 141.501 204.583 114.584V86.8807H232.681C253.426 86.8807 261.039 86.621 261.776 85.8883C263.089 84.5817 263.22 4.07941 261.913 1.64896C261.079 0.100062 259.723 0.0496177 218.852 0.0496177C187.138 0.0496177 176.404 0.296053 175.654 1.04197ZM292.034 1.04197C290.778 2.29151 290.599 141.97 291.851 143.941C292.534 145.017 298.261 145.182 335.095 145.182C371.929 145.182 377.656 145.017 378.339 143.941C379.539 142.053 379.376 118.031 378.156 116.817C377.419 116.084 369.806 115.824 349.061 115.824H320.963V58.9294C320.963 15.7801 320.722 1.79451 319.966 1.04197C318.569 -0.347324 293.431 -0.347324 292.034 1.04197ZM408.277 1.64896C407.704 2.71575 407.417 26.4281 407.417 72.7677C407.417 141.979 407.424 142.295 409.139 144C410.753 145.606 411.635 145.696 423.302 145.447C433.25 145.234 435.903 144.933 436.531 143.941C436.985 143.226 437.323 130.885 437.331 114.771L437.343 86.8418L451.683 87.0676L466.023 87.2942L466.235 115.411C466.426 140.669 466.59 143.633 467.848 144.561C469.559 145.822 490.181 146.006 493.401 144.789L495.533 143.982V73.0084C495.533 18.9093 495.296 1.79864 494.536 1.04197C493.786 0.296053 483.052 0.0496177 451.338 0.0496177C410.467 0.0496177 409.111 0.100062 408.277 1.64896ZM525.009 1.08332C524.79 1.65227 524.709 21.0958 524.828 44.2921L525.044 86.4672L539.384 86.6938L553.723 86.9196V115.401C553.723 142.714 553.789 143.918 555.331 144.739C557.37 145.824 577.841 145.865 580.686 144.789L582.818 143.982V115.451V86.9196L597.158 86.6938L611.498 86.4672V43.4652V0.463099H597.366H583.234L583.015 28.0952C582.867 46.8044 582.498 56.0838 581.874 56.8322C580.628 58.3265 556.211 58.4274 554.721 56.9446C553.986 56.2136 553.723 48.9289 553.723 29.3092C553.723 14.6554 553.496 2.07733 553.219 1.35787C552.787 0.238165 550.744 0.0496177 539.061 0.0496177C528.904 0.0496177 525.306 0.314246 525.009 1.08332ZM231.849 29.9857C232.54 30.6729 232.847 34.9648 232.847 43.9555C232.847 55.0261 232.654 57.0067 231.532 57.435C230.809 57.7112 224.449 57.937 217.4 57.937H204.583V43.4652V28.9933H217.717C226.825 28.9933 231.158 29.2976 231.849 29.9857ZM465.132 30.2925C466.211 31.365 466.438 33.8922 466.438 44.7643V57.937H451.891H437.343V44.4575C437.343 35.0764 437.647 30.6762 438.341 29.9857C439.027 29.3034 443.167 28.9933 451.582 28.9933C461.604 28.9933 464.062 29.229 465.132 30.2925ZM1.08421 174.704C-0.361402 176.142 -0.361402 316.827 1.08421 318.265C1.77168 318.949 5.97965 319.257 14.6342 319.257C23.2887 319.257 27.4967 318.949 28.1841 318.265C28.9207 317.532 29.1817 309.959 29.1817 289.321V261.37H57.2792C78.0247 261.37 85.6377 261.11 86.3742 260.377C87.7707 258.988 87.7707 233.981 86.3742 232.592C85.6377 231.859 78.0247 231.599 57.2792 231.599H29.1817V219.709C29.1817 210.799 29.4602 207.59 30.2923 206.903C31.0446 206.282 40.3725 205.915 59.1795 205.768L86.9561 205.55L87.1839 190.773C87.3401 180.575 87.1157 175.642 86.4581 174.854C85.1513 173.288 2.65367 173.143 1.08421 174.704ZM117.464 174.704C116.019 176.142 116.019 316.827 117.464 318.265C118.213 319.01 128.849 319.257 160.217 319.257C197.067 319.257 202.124 319.104 203.277 317.958C204.443 316.797 204.583 309.177 204.583 246.484C204.583 183.792 204.443 176.172 203.277 175.011C202.204 173.943 199.711 173.712 189.312 173.712C180.573 173.712 176.343 174.019 175.654 174.704C174.898 175.457 174.657 189.442 174.657 232.592V289.487H160.109H145.562V232.101C145.562 180.536 145.429 174.664 144.247 174.214C141.681 173.235 118.516 173.658 117.464 174.704ZM233.844 174.704C232.596 175.946 232.418 257.759 233.66 259.716C234.326 260.764 238.785 261.02 262.535 261.37L290.621 261.783V275.428V289.073L262.535 289.487C238.785 289.836 234.326 290.092 233.66 291.14C232.46 293.029 232.624 317.051 233.844 318.265C234.594 319.011 245.328 319.257 277.042 319.257C317.913 319.257 319.269 319.207 320.103 317.658C321.223 315.576 321.267 235.014 320.15 233.253C319.484 232.205 315.025 231.949 291.275 231.599L263.189 231.186V217.541V203.896L291.275 203.482C315.025 203.133 319.484 202.877 320.15 201.829C321.223 200.14 321.182 177.317 320.103 175.311C319.269 173.762 317.913 173.712 277.042 173.712C245.328 173.712 234.594 173.958 233.844 174.704ZM350.603 175.224C349.345 176.606 349.227 182.754 349.227 246.628C349.227 313.288 349.298 316.584 350.747 317.889C352.942 319.865 375.871 319.924 377.847 317.958C379.014 316.797 379.153 309.177 379.153 246.484C379.153 183.792 379.014 176.172 377.847 175.011C376.777 173.947 374.316 173.712 364.26 173.712C353.417 173.712 351.817 173.889 350.603 175.224ZM408.723 175.011C407.557 176.172 407.417 183.792 407.417 246.484C407.417 309.177 407.557 316.797 408.723 317.958C409.876 319.104 414.933 319.257 451.783 319.257C483.151 319.257 493.787 319.01 494.536 318.265C495.981 316.827 495.981 176.142 494.536 174.704C493.787 173.959 483.151 173.712 451.783 173.712C414.933 173.712 409.876 173.865 408.723 175.011ZM525.626 174.704C524.18 176.142 524.18 316.827 525.626 318.265C526.313 318.949 530.521 319.257 539.176 319.257C547.83 319.257 552.038 318.949 552.726 318.265C553.469 317.526 553.733 308.398 553.762 282.499L553.802 247.725L567.976 282.871C575.771 302.201 582.58 318.29 583.107 318.625C584.795 319.695 609.804 319.371 610.916 318.265C612.361 316.827 612.361 176.142 610.916 174.704C609.424 173.22 585.009 173.323 583.761 174.819C583.123 175.583 582.769 186.654 582.62 210.498L582.403 245.07L568.454 210.358C560.782 191.267 554.067 175.212 553.532 174.679C552.159 173.313 527.002 173.336 525.626 174.704ZM465.578 205.082C466.922 207.581 466.748 286.268 465.394 288.111C464.47 289.367 462.827 289.505 451.055 289.302L437.759 289.073L437.543 247.311C437.424 224.343 437.505 205.085 437.724 204.516C438.02 203.749 441.548 203.482 451.419 203.482C463.716 203.482 464.782 203.603 465.578 205.082ZM1.48488 348.408C0.170621 349.369 0.0866614 354.458 0.287001 420.974L0.502305 492.506H43.7292H86.9561V478.448V464.389L58.0689 464.172L29.1817 463.954V406.52C29.1817 350.583 29.1401 349.063 27.574 348.23C25.2031 346.968 3.24971 347.117 1.48488 348.408ZM118.337 348.227L116.467 348.975V420.018C116.467 479.509 116.654 491.217 117.617 492.013C118.404 492.662 122.937 492.89 131.957 492.734L145.146 492.506L145.365 463.769L145.583 435.032H160.12H174.657V462.983C174.657 483.621 174.918 491.194 175.654 491.927C176.346 492.615 180.673 492.919 189.757 492.919C201.863 492.919 202.928 492.798 203.723 491.32C204.296 490.253 204.583 466.541 204.583 420.201C204.583 351.784 204.556 350.655 202.921 349.028C201.302 347.418 200.186 347.376 160.733 347.426C138.444 347.455 119.366 347.816 118.337 348.227ZM235.341 347.965C234.655 348.232 233.819 348.858 233.483 349.359C233.147 349.859 232.867 381.919 232.859 420.602C232.85 474.217 233.084 491.17 233.844 491.927C235.283 493.358 318.528 493.358 319.966 491.927C321.222 490.677 321.401 350.999 320.15 349.028C319.469 347.956 313.745 347.767 277.975 347.634C255.212 347.55 236.026 347.699 235.341 347.965ZM351.097 348.642L349.227 349.948V391.092C349.227 422.712 349.467 432.558 350.266 433.629C351.199 434.881 354.154 435.044 379.153 435.235L407.001 435.445L407.231 449.028C407.404 459.341 407.204 462.772 406.399 463.281C405.816 463.649 393.162 463.956 378.28 463.963C358.358 463.972 350.959 464.237 350.224 464.968C348.958 466.228 348.84 489.001 350.087 491.32C350.921 492.869 352.277 492.919 393.148 492.919C424.862 492.919 435.596 492.673 436.346 491.927C437.095 491.182 437.343 480.695 437.343 449.82C437.343 427.206 437.116 408.116 436.839 407.397C436.392 406.24 433.129 406.088 408.676 406.088C386.139 406.088 380.842 405.877 380.064 404.944C379.412 404.161 379.182 399.652 379.339 390.679L379.569 377.558L407.345 377.34C426.152 377.193 435.48 376.826 436.233 376.205C437.56 375.109 437.823 351.064 436.53 349.028C435.85 347.958 430.07 347.757 394.355 347.561C357.733 347.361 352.752 347.486 351.097 348.642ZM174.469 391.843L174.696 406.127L160.337 405.901L145.977 405.675L145.748 393.05C145.605 385.186 145.855 379.798 146.411 378.765C147.258 377.192 148.016 377.116 160.773 377.331L174.241 377.558L174.469 391.843ZM290.851 390.679C291.008 399.652 290.778 404.161 290.126 404.944C289.386 405.83 286.197 406.088 275.972 406.088H262.773V391.597V377.105L276.697 377.332L290.621 377.558L290.851 390.679ZM482.157 398.225C477.032 399.865 470.811 405.466 468.405 410.605C465.595 416.608 465.664 424.892 468.572 430.698C475.692 444.912 494.383 448.087 505.83 437.028C510.923 432.107 512.544 428.141 512.561 420.56C512.573 414.764 512.27 413.399 510.119 409.534C505.955 402.056 499.604 397.989 491.134 397.377C487.873 397.141 484.569 397.453 482.157 398.225ZM582.818 397.715C575.053 400.259 568.938 405.864 566.653 412.534C562.784 423.833 567.588 435.815 578.142 441.185C582.14 443.218 583.936 443.634 588.509 443.584C598.112 443.477 605.145 439.145 609.37 430.735C616.928 415.689 606.776 398.265 589.9 397.316C587.148 397.161 583.961 397.341 582.818 397.715ZM290.851 449.028C291.024 459.341 290.824 462.772 290.019 463.281C289.436 463.649 283.067 463.956 275.866 463.963L262.773 463.976V449.484V434.992L276.697 435.219L290.621 435.445L290.851 449.028Z" fill="white"/>
  <path d="M518.153 459.427C521.083 453.828 525.647 449.714 531.063 447.791C534.93 446.418 542.107 446.302 546.273 447.544C551.518 449.107 557.162 453.983 559.906 459.322C561.935 463.267 562.373 465.117 562.345 469.635C562.287 479.11 557.881 486.175 549.404 490.389C537.765 496.174 524.782 491.992 518.392 480.398C516.294 476.591 515.952 475.093 515.97 469.764C515.986 464.72 516.394 462.791 518.153 459.427Z" fill="#6A16AB"/>
  <path d="M515.78 373.304C514.392 361.647 523.479 350.043 535.368 348.289C550.016 346.127 562.395 356.778 562.31 371.467C562.232 384.772 550.77 395.311 537.489 394.289C525.93 393.399 517.163 384.925 515.78 373.304Z" fill="#6A16AB"/>
  <path d="M54.9516 28.9387C54.9516 12.8113 55.2716 2.65372 55.8119 1.64896C56.6175 0.152985 57.7048 0.0496147 72.687 0.0496147C84.0349 0.0496147 88.9927 0.339052 89.6993 1.04197C90.4333 1.77218 90.6969 8.98081 90.6969 28.3317V54.6292H117.132C136.584 54.6292 143.83 54.8913 144.564 55.6215C145.272 56.3261 145.562 61.3358 145.562 72.8992C145.562 86.9865 145.384 89.2524 144.247 89.6866C143.523 89.9628 131.179 90.1885 116.814 90.1885H90.6969L90.6844 116.445C90.6769 131.509 90.3361 143.229 89.8847 143.941C88.6669 145.86 59.8254 146.252 56.9649 144.389L54.9516 143.076V116.632V90.1885H28.5166C9.06455 90.1885 1.81823 89.9264 1.0842 89.1962C0.37761 88.4933 0.0866601 83.5613 0.0866601 72.2724C0.0866601 57.3681 0.190571 56.2864 1.69437 55.4851C2.70438 54.9475 12.9151 54.6292 29.1268 54.6292H54.9516V28.9387Z" fill="#6A16AB"/>
</svg>